<?xml version="1.0" encoding="UTF-8"?> <svg xmlns="http://www.w3.org/2000/svg" viewBox="0 0 468 468"><defs><style>.d{fill:#083655;}</style></defs><g id="a"></g><g id="b"><g id="c"><g><path class="d" d="M218.535,248.512c10.373-12.161,12.686-26.537,11.238-42.065-1.683-18.046-13.019-32.288-30.443-37.319-15.854-4.578-32.026-2.53-48.106-2.38-3.407,.032-3.813,2.261-3.795,5.116,.091,14.646,.042,29.293,.04,43.94,0,14.647,.092,29.294-.067,43.939-.038,3.519,.832,5.14,4.654,5.163,9.803,.059,19.642,1.096,29.396,.529,14.355-.835,27.422-5.598,37.083-16.923Z"></path><path class="d" d="M396.75,0H71.25C31.9,0,0,31.9,0,71.25V396.75c0,39.35,31.9,71.25,71.25,71.25H396.75c39.35,0,71.25-31.9,71.25-71.25V71.25C468,31.9,436.1,0,396.75,0Zm-93.026,396.338c-8.376,.914-16.939,2.185-25.233,1.371-18.41-1.807-33.238-10.731-44.798-25.303-20.349-25.653-37.67-53.284-53.692-81.753-2.364-4.201-4.875-5.896-9.719-5.651-6.126,.311-12.307-.246-18.452-.639-3.21-.205-4.475,.833-4.423,4.187,.372,23.978,.345,47.966,.989,71.936,.38,14.125,5.817,19.043,20.015,20.217,4.133,.342,8.263,.992,12.325,1.838,5.981,1.245,2.784,6.103,3.267,9.378,.503,3.412-2.16,3.448-4.648,3.392-15.321-.342-30.642-.893-45.964-.901-14.154-.007-28.312,.462-42.459,.981-4.035,.148-5.772-.871-5.448-5.189,.531-7.072-1.776-7.232,7.282-8.779,1.473-.252,2.937-.566,4.415-.785,12.65-1.872,17.797-7.226,18.397-20.064,.467-9.98,.461-19.987,.466-29.982,.022-44.657,.025-89.315-.11-133.972-.02-6.464-.507-12.968-1.355-19.378-1.039-7.85-5.913-12.374-13.7-13.79-3.433-.624-6.849-1.344-10.276-2.001-4.593-.881-7.747-9.482-4.411-12.725,1.052-1.023,3.4-.964,5.156-.972,20.494-.097,40.99-.031,61.483-.18,11.822-.086,23.656-.987,35.458-.629,20.265,.614,39.78,4.36,55.932,17.915,15.475,12.987,21.856,30.307,20.28,49.835-2.648,32.823-21.05,53.933-51.739,64.816-.614,.218-1.171,.597-2.687,1.385,6.357,10.237,11.941,20.502,18.736,29.891,12.29,16.981,24.906,33.763,38.146,50.008,9.72,11.927,21.564,21.304,37.798,23.198,.981,.114,2.38,2.545,2.388,3.905,.017,3.164,1.866,7.862-3.416,8.438Zm82.192-223.55c-5.557,18.44-20.692,30.278-40.073,31.459-16.116,.982-30.889-2.137-41.956-15.141-6.21-7.297-9.739-15.953-10.773-25.37-2.166-19.737-2.776-39.555,.565-59.214,3.586-21.099,16.821-33.61,38.611-37.432,20.244-3.551,40.321,5.297,50.263,22.151,3.6,6.103,3.44,6.695-2.986,9.389-3.672,1.54-7.716,4.535-11.017,3.898-2.784-.537-4.723-5.383-7.062-8.301-7.415-9.25-17.616-10.888-28.035-8.294-11.205,2.79-17.513,11.347-18.98,22.692-1.149,8.88-1.218,17.9-1.753,26.639,.547,9.231,.695,18.232,1.709,27.135,1.166,10.237,6.504,17.929,16.683,20.961,10.243,3.052,20.284,2.36,28.453-5.455,7.779-7.442,8.412-17.364,7.982-27.326-.04-.925-2.448-2.419-3.821-2.496-5.313-.299-10.654-.219-15.981-.107-3.893,.082-5.662-1.383-5.812-5.521-.465-12.847-.59-12.841,12.235-12.835,9.993,.005,19.986,.063,29.978-.027,2.942-.027,4.923,.717,4.952,4.045,.114,13.148,.669,26.368-3.183,39.151Z"></path></g></g></g></svg> 